<mxfile host="app.diagrams.net" modified="2024-05-07T10:05:00.144Z" agent="Mozilla/5.0 (Windows NT 10.0; Win64; x64; rv:125.0) Gecko/20100101 Firefox/125.0" etag="3EsUsV6gUFaUN0ay1wLy" version="24.3.1" type="github" pages="2">
  <diagram name="AloudData Architecture" id="Y1wMzlyQhokLqSUriz7b">
    <mxGraphModel dx="1434" dy="754" grid="1" gridSize="10" guides="1" tooltips="1" connect="1" arrows="1" fold="1" page="1" pageScale="1" pageWidth="827" pageHeight="1169" math="0" shadow="0">
      <root>
        <mxCell id="0" />
        <mxCell id="1" parent="0" />
        <mxCell id="FMhfe5v9gaE8zIb7SGGD-5" value="&lt;div&gt;local&lt;br&gt;&lt;/div&gt;&lt;div&gt;query&lt;/div&gt;" style="edgeStyle=orthogonalEdgeStyle;rounded=0;orthogonalLoop=1;jettySize=auto;html=1;exitX=0.75;exitY=1;exitDx=0;exitDy=0;fontSize=15;fontStyle=1;strokeWidth=2;" edge="1" parent="1" source="FMhfe5v9gaE8zIb7SGGD-1" target="FMhfe5v9gaE8zIb7SGGD-4">
          <mxGeometry relative="1" as="geometry" />
        </mxCell>
        <mxCell id="FMhfe5v9gaE8zIb7SGGD-7" value="&lt;div&gt;&lt;span data-slate-fragment=&quot;JTVCJTdCJTIydHlwZSUyMiUzQSUyMnBhcmFncmFwaCUyMiUyQyUyMmNoaWxkcmVuJTIyJTNBJTVCJTdCJTIyaWQlMjIlM0ElMjJ4QnZySkoxS3JCJTIyJTJDJTIycGFyYUlkeCUyMiUzQTAlMkMlMjJzcmMlMjIlM0ElMjJhcHBlYXJhbmNlJTIyJTJDJTIyZHN0JTIyJTNBJTIyJUU1JUE0JTk2JUU4JUIyJThDJTIyJTJDJTIybWV0YWRhdGElMjIlM0ElMjIlMjIlMkMlMjJtZXRhRGF0YSUyMiUzQSU1QiU1RCUyQyUyMnRleHQlMjIlM0ElMjJhcHBlYXJhbmNlJTIyJTdEJTVEJTdEJTVE&quot; style=&quot;white-space: pre;&quot;&gt;appearance&lt;/span&gt;&lt;/div&gt;&lt;div&gt;query&lt;/div&gt;" style="edgeStyle=orthogonalEdgeStyle;rounded=0;orthogonalLoop=1;jettySize=auto;html=1;exitX=0.25;exitY=1;exitDx=0;exitDy=0;fontSize=15;fontStyle=1;strokeWidth=2;" edge="1" parent="1" source="FMhfe5v9gaE8zIb7SGGD-1" target="FMhfe5v9gaE8zIb7SGGD-6">
          <mxGeometry relative="1" as="geometry" />
        </mxCell>
        <mxCell id="FMhfe5v9gaE8zIb7SGGD-1" value="Service" style="rounded=1;whiteSpace=wrap;html=1;fontSize=18;fontStyle=1" vertex="1" parent="1">
          <mxGeometry x="40" y="200" width="560" height="80" as="geometry" />
        </mxCell>
        <mxCell id="FMhfe5v9gaE8zIb7SGGD-3" value="&lt;div style=&quot;font-size: 15px;&quot;&gt;api&lt;/div&gt;&lt;div style=&quot;font-size: 15px;&quot;&gt;call&lt;br style=&quot;font-size: 15px;&quot;&gt;&lt;/div&gt;" style="edgeStyle=orthogonalEdgeStyle;rounded=0;orthogonalLoop=1;jettySize=auto;html=1;exitX=0.5;exitY=1;exitDx=0;exitDy=0;fontSize=15;fontStyle=1;strokeWidth=2;entryX=1;entryY=0.5;entryDx=0;entryDy=0;entryPerimeter=0;" edge="1" parent="1" source="FMhfe5v9gaE8zIb7SGGD-2" target="FMhfe5v9gaE8zIb7SGGD-11">
          <mxGeometry relative="1" as="geometry" />
        </mxCell>
        <mxCell id="FMhfe5v9gaE8zIb7SGGD-2" value="visualization UI" style="rounded=1;whiteSpace=wrap;html=1;fontSize=18;fontStyle=1" vertex="1" parent="1">
          <mxGeometry x="40" y="40" width="560" height="60" as="geometry" />
        </mxCell>
        <mxCell id="FMhfe5v9gaE8zIb7SGGD-4" value="PostgreSQL" style="shape=cylinder3;whiteSpace=wrap;html=1;boundedLbl=1;backgroundOutline=1;size=15;fontSize=18;fontStyle=1" vertex="1" parent="1">
          <mxGeometry x="395" y="365" width="130" height="80" as="geometry" />
        </mxCell>
        <mxCell id="FMhfe5v9gaE8zIb7SGGD-6" value="&lt;div&gt;Data&lt;/div&gt;&lt;div&gt;Warehouse&lt;/div&gt;" style="shape=cylinder3;whiteSpace=wrap;html=1;boundedLbl=1;backgroundOutline=1;size=15;fontSize=18;fontStyle=1" vertex="1" parent="1">
          <mxGeometry x="115" y="365" width="130" height="80" as="geometry" />
        </mxCell>
        <mxCell id="FMhfe5v9gaE8zIb7SGGD-11" value="" style="shape=providedRequiredInterface;html=1;verticalLabelPosition=bottom;sketch=0;rotation=-90;strokeWidth=2;" vertex="1" parent="1">
          <mxGeometry x="310" y="192" width="20" height="20" as="geometry" />
        </mxCell>
      </root>
    </mxGraphModel>
  </diagram>
  <diagram id="gpAQL1EI2oKj0jvnUkY6" name="for-apple">
    <mxGraphModel dx="2261" dy="754" grid="1" gridSize="10" guides="1" tooltips="1" connect="1" arrows="1" fold="1" page="1" pageScale="1" pageWidth="827" pageHeight="1169" math="0" shadow="0">
      <root>
        <mxCell id="0" />
        <mxCell id="1" parent="0" />
        <mxCell id="dRiBHSCzJZWea_XQq5pK-13" value="" style="rounded=0;whiteSpace=wrap;html=1;strokeWidth=2;" vertex="1" parent="1">
          <mxGeometry x="-89" y="430" width="360" height="150" as="geometry" />
        </mxCell>
        <mxCell id="dRiBHSCzJZWea_XQq5pK-1" value="&lt;div&gt;local&lt;br&gt;&lt;/div&gt;&lt;div&gt;query&lt;/div&gt;" style="edgeStyle=orthogonalEdgeStyle;rounded=0;orthogonalLoop=1;jettySize=auto;html=1;exitX=0.75;exitY=1;exitDx=0;exitDy=0;fontSize=15;fontStyle=1;strokeWidth=2;" edge="1" parent="1" source="dRiBHSCzJZWea_XQq5pK-3" target="dRiBHSCzJZWea_XQq5pK-6">
          <mxGeometry relative="1" as="geometry" />
        </mxCell>
        <mxCell id="dRiBHSCzJZWea_XQq5pK-2" value="&lt;div&gt;&lt;span data-slate-fragment=&quot;JTVCJTdCJTIydHlwZSUyMiUzQSUyMnBhcmFncmFwaCUyMiUyQyUyMmNoaWxkcmVuJTIyJTNBJTVCJTdCJTIyaWQlMjIlM0ElMjJ4QnZySkoxS3JCJTIyJTJDJTIycGFyYUlkeCUyMiUzQTAlMkMlMjJzcmMlMjIlM0ElMjJhcHBlYXJhbmNlJTIyJTJDJTIyZHN0JTIyJTNBJTIyJUU1JUE0JTk2JUU4JUIyJThDJTIyJTJDJTIybWV0YWRhdGElMjIlM0ElMjIlMjIlMkMlMjJtZXRhRGF0YSUyMiUzQSU1QiU1RCUyQyUyMnRleHQlMjIlM0ElMjJhcHBlYXJhbmNlJTIyJTdEJTVEJTdEJTVE&quot; style=&quot;white-space: pre;&quot;&gt;appearance&lt;/span&gt;&lt;/div&gt;&lt;div&gt;query&lt;/div&gt;" style="edgeStyle=orthogonalEdgeStyle;rounded=0;orthogonalLoop=1;jettySize=auto;html=1;exitX=0.25;exitY=1;exitDx=0;exitDy=0;fontSize=15;fontStyle=1;strokeWidth=2;entryX=0.5;entryY=0;entryDx=0;entryDy=0;" edge="1" parent="1" source="dRiBHSCzJZWea_XQq5pK-3" target="dRiBHSCzJZWea_XQq5pK-14">
          <mxGeometry relative="1" as="geometry" />
        </mxCell>
        <mxCell id="dRiBHSCzJZWea_XQq5pK-3" value="Service" style="rounded=1;whiteSpace=wrap;html=1;fontSize=18;fontStyle=1;strokeWidth=2;" vertex="1" parent="1">
          <mxGeometry x="-95" y="200" width="740" height="80" as="geometry" />
        </mxCell>
        <mxCell id="dRiBHSCzJZWea_XQq5pK-4" value="&lt;div style=&quot;font-size: 15px;&quot;&gt;api&lt;/div&gt;&lt;div style=&quot;font-size: 15px;&quot;&gt;call&lt;br style=&quot;font-size: 15px;&quot;&gt;&lt;/div&gt;" style="edgeStyle=isometricEdgeStyle;rounded=0;orthogonalLoop=1;jettySize=auto;html=1;exitX=0.5;exitY=1;exitDx=0;exitDy=0;fontSize=15;fontStyle=1;strokeWidth=2;entryX=1;entryY=0.5;entryDx=0;entryDy=0;entryPerimeter=0;elbow=vertical;" edge="1" parent="1" source="dRiBHSCzJZWea_XQq5pK-5" target="dRiBHSCzJZWea_XQq5pK-8">
          <mxGeometry relative="1" as="geometry" />
        </mxCell>
        <mxCell id="dRiBHSCzJZWea_XQq5pK-5" value="AloudData Visualization UI" style="rounded=1;whiteSpace=wrap;html=1;fontSize=18;fontStyle=1;strokeWidth=2;" vertex="1" parent="1">
          <mxGeometry x="-95" y="40" width="335" height="60" as="geometry" />
        </mxCell>
        <mxCell id="dRiBHSCzJZWea_XQq5pK-6" value="PostgreSQL" style="shape=cylinder3;whiteSpace=wrap;html=1;boundedLbl=1;backgroundOutline=1;size=15;fontSize=18;fontStyle=1;strokeWidth=2;" vertex="1" parent="1">
          <mxGeometry x="407" y="489" width="108" height="80" as="geometry" />
        </mxCell>
        <mxCell id="dRiBHSCzJZWea_XQq5pK-7" value="Doris" style="shape=cylinder3;whiteSpace=wrap;html=1;boundedLbl=1;backgroundOutline=1;size=15;fontSize=18;fontStyle=1;strokeWidth=2;" vertex="1" parent="1">
          <mxGeometry x="37" y="489" width="108" height="80" as="geometry" />
        </mxCell>
        <mxCell id="dRiBHSCzJZWea_XQq5pK-8" value="" style="shape=providedRequiredInterface;html=1;verticalLabelPosition=bottom;sketch=0;rotation=-90;strokeWidth=2;" vertex="1" parent="1">
          <mxGeometry x="270" y="192" width="20" height="20" as="geometry" />
        </mxCell>
        <mxCell id="dRiBHSCzJZWea_XQq5pK-9" value="Apple BBI Visualization UI" style="rounded=1;whiteSpace=wrap;html=1;fontSize=18;fontStyle=1;strokeWidth=2;" vertex="1" parent="1">
          <mxGeometry x="310" y="40" width="335" height="60" as="geometry" />
        </mxCell>
        <mxCell id="dRiBHSCzJZWea_XQq5pK-10" value="&lt;div style=&quot;font-size: 15px;&quot;&gt;api&lt;/div&gt;&lt;div style=&quot;font-size: 15px;&quot;&gt;call&lt;br style=&quot;font-size: 15px;&quot;&gt;&lt;/div&gt;" style="rounded=0;orthogonalLoop=1;jettySize=auto;html=1;exitX=0.5;exitY=1;exitDx=0;exitDy=0;entryX=1;entryY=0.5;entryDx=0;entryDy=0;entryPerimeter=0;fontSize=15;fontStyle=1;strokeWidth=2;edgeStyle=isometricEdgeStyle;" edge="1" parent="1" source="dRiBHSCzJZWea_XQq5pK-9" target="dRiBHSCzJZWea_XQq5pK-8">
          <mxGeometry relative="1" as="geometry" />
        </mxCell>
        <mxCell id="dRiBHSCzJZWea_XQq5pK-11" value="&lt;div&gt;ADB-&lt;/div&gt;&lt;div&gt;MySQL&lt;br&gt;&lt;/div&gt;" style="shape=cylinder3;whiteSpace=wrap;html=1;boundedLbl=1;backgroundOutline=1;size=15;fontSize=18;fontStyle=1;strokeWidth=2;" vertex="1" parent="1">
          <mxGeometry x="154" y="489" width="108" height="80" as="geometry" />
        </mxCell>
        <mxCell id="dRiBHSCzJZWea_XQq5pK-12" value="Hive" style="shape=cylinder3;whiteSpace=wrap;html=1;boundedLbl=1;backgroundOutline=1;size=15;fontSize=18;fontStyle=1;strokeWidth=2;" vertex="1" parent="1">
          <mxGeometry x="-80" y="489" width="108" height="80" as="geometry" />
        </mxCell>
        <mxCell id="dRiBHSCzJZWea_XQq5pK-14" value="Data Warehouse" style="rounded=0;whiteSpace=wrap;html=1;strokeWidth=2;fontSize=18;fontStyle=1" vertex="1" parent="1">
          <mxGeometry x="-89" y="430" width="360" height="40" as="geometry" />
        </mxCell>
      </root>
    </mxGraphModel>
  </diagram>
</mxfile>
